<?xml version="1.0" standalone="no"?>
<!DOCTYPE svg PUBLIC "-//W3C//DTD SVG 20010904//EN"
 "http://www.w3.org/TR/2001/REC-SVG-20010904/DTD/svg10.dtd">
<svg version="1.0" xmlns="http://www.w3.org/2000/svg"
 width="500.000000pt" height="500.000000pt" viewBox="0 0 500.000000 500.000000"
 preserveAspectRatio="xMidYMid meet">

<g transform="translate(0.000000,500.000000) scale(0.100000,-0.100000)"
fill="#000000" stroke="none">
<path d="M0 2500 l0 -2500 2500 0 2500 0 0 2500 0 2500 -2500 0 -2500 0 0
-2500z m2460 1320 l0 -40 -663 0 -664 0 -6 -397 c-4 -219 -7 -521 -7 -670 l0
-273 -35 0 -35 0 0 703 c0 387 3 707 7 710 3 4 321 7 705 7 l698 0 0 -40z
m-702 -547 c5 -10 22 -89 37 -175 16 -87 31 -155 34 -152 3 3 22 80 41 172
l35 167 101 3 101 3 6 -118 c4 -65 8 -246 9 -403 l3 -285 -76 -3 -76 -3 -6 98
c-4 54 -7 127 -8 163 -1 70 2 81 -54 -227 l-6 -33 -68 0 -69 0 -26 138 c-14
76 -27 147 -27 157 -4 61 -18 -78 -18 -177 l-1 -118 -81 0 -80 0 6 393 c4 215
8 398 10 405 3 8 33 12 104 12 86 0 102 -3 109 -17z m650 -390 l2 -403 -105 0
-105 0 0 398 c0 219 3 402 7 406 4 4 50 5 103 4 l95 -3 3 -402z m284 290 l3
-118 49 118 48 117 99 0 c58 0 99 -4 99 -10 0 -5 -31 -86 -70 -179 -38 -94
-70 -175 -70 -181 0 -16 132 -391 136 -387 2 2 35 169 73 370 39 202 73 372
76 377 7 12 212 14 218 3 6 -10 147 -765 147 -787 0 -14 -14 -16 -94 -16 l-94
0 -11 63 c-6 35 -11 71 -11 80 0 13 -10 17 -45 17 -35 0 -45 -4 -45 -17 0 -9
-5 -45 -11 -80 l-11 -63 -196 2 -195 3 -46 140 -46 140 -3 -142 -3 -143 -99 0
-100 0 0 405 0 405 100 0 99 0 3 -117z m1348 -1288 l0 -705 -695 0 c-382 0
-698 -1 -702 -2 -5 -2 -9 14 -11 35 l-3 37 664 0 664 0 6 467 c4 256 7 558 7
670 l0 203 35 0 35 0 0 -705z m-2299 399 c48 -28 71 -74 77 -155 l5 -69 -77 0
-76 0 0 54 c0 72 -7 86 -39 86 -49 0 -51 -9 -51 -235 0 -227 2 -235 52 -235
31 0 36 12 40 95 l3 50 74 3 73 3 -4 -68 c-7 -139 -71 -198 -204 -190 -91 5
-130 27 -164 92 -24 48 -25 55 -25 250 0 189 1 203 23 247 27 54 39 65 89 84
52 19 161 13 204 -12z m472 -3 c21 -12 44 -40 56 -65 19 -39 21 -60 21 -253 0
-200 -1 -212 -23 -254 -29 -55 -71 -79 -147 -86 -115 -11 -195 35 -219 124
-14 49 -14 387 0 436 14 50 55 94 104 113 57 21 163 13 208 -15z m1295 3 c31
-23 61 -77 69 -128 6 -39 7 -38 -84 -50 -43 -6 -43 -6 -43 25 0 40 -16 69 -38
69 -27 0 -42 -21 -42 -59 0 -30 12 -46 95 -130 63 -63 101 -110 111 -138 21
-55 15 -144 -13 -181 -77 -103 -256 -93 -309 18 -12 25 -24 62 -27 82 -6 41
-5 42 76 54 36 5 47 3 47 -7 0 -84 76 -145 93 -77 13 49 -6 82 -99 173 -101
98 -115 123 -115 202 0 78 30 126 101 158 48 21 141 15 178 -11z m-814 -10
c25 -12 48 -35 60 -60 19 -36 21 -56 21 -249 0 -193 -2 -213 -21 -249 -34 -66
-75 -80 -236 -84 l-138 -4 0 337 0 337 138 -4 c115 -2 143 -6 176 -24z m476
-24 l0 -50 -75 0 -75 0 0 -85 0 -85 55 0 55 0 0 -50 0 -50 -55 0 -55 0 0 -100
0 -100 75 0 75 0 0 -50 0 -50 -150 0 -150 0 0 335 0 335 150 0 150 0 0 -50z"/>
<path d="M1577 2993 c-4 -141 -7 -305 -7 -365 l0 -108 39 0 38 0 6 83 c4 45 7
155 7 245 0 137 2 164 15 169 9 3 18 3 21 0 5 -4 94 -469 94 -489 0 -5 18 -8
39 -8 l39 0 15 83 c8 45 27 155 43 245 23 134 31 162 44 162 21 0 30 -93 30
-312 0 -80 3 -153 6 -162 4 -11 19 -16 47 -16 l40 0 -6 137 c-4 75 -7 239 -7
365 l0 228 -73 0 -72 0 -44 -215 c-38 -182 -47 -215 -62 -215 -22 0 -19 -9
-64 233 l-37 197 -73 0 -72 0 -6 -257z"/>
<path d="M2240 2885 l0 -365 65 0 65 0 0 365 0 365 -65 0 -65 0 0 -365z"/>
<path d="M2520 2885 l0 -365 65 0 65 0 0 143 c0 132 2 145 24 181 l24 40 58
-182 58 -182 67 0 67 0 -39 108 c-21 59 -52 150 -70 202 l-31 95 62 150 c34
83 64 156 67 163 4 9 -11 12 -58 12 l-64 0 -61 -148 c-48 -118 -64 -147 -80
-147 -18 0 -19 9 -22 148 l-3 147 -64 0 -65 0 0 -365z"/>
<path d="M3160 3242 c0 -5 -29 -163 -65 -353 -36 -189 -65 -350 -65 -356 0 -9
18 -13 59 -13 l59 0 12 80 12 80 73 0 73 0 12 -80 12 -80 60 0 c53 0 60 2 56
18 -3 9 -34 173 -69 364 l-64 348 -82 0 c-46 0 -83 -4 -83 -8z m105 -194 c11
-50 41 -299 37 -303 -8 -8 -110 -6 -115 3 -3 5 37 308 42 320 0 1 8 2 16 2 8
0 17 -10 20 -22z"/>
<path d="M3237 2866 c-10 -71 -9 -86 8 -86 17 0 19 29 6 95 l-7 40 -7 -49z"/>
<path d="M2050 2174 c-6 -14 -10 -108 -10 -209 0 -207 6 -235 48 -235 50 0 52
8 52 235 0 227 -2 235 -52 235 -21 0 -31 -6 -38 -26z"/>
<path d="M2535 2188 c-3 -7 -4 -112 -3 -233 l3 -220 34 2 c18 0 38 6 45 13 14
14 16 415 1 428 -19 18 -75 25 -80 10z"/>
</g>
</svg>
