<?xml version="1.0" standalone="no"?>
<!DOCTYPE svg PUBLIC "-//W3C//DTD SVG 20010904//EN"
 "http://www.w3.org/TR/2001/REC-SVG-20010904/DTD/svg10.dtd">
<svg version="1.0" xmlns="http://www.w3.org/2000/svg"
 width="300.000000pt" height="300.000000pt" viewBox="0 0 300.000000 300.000000"
 preserveAspectRatio="xMidYMid meet">
<metadata>
Created by potrace 1.10, written by Peter Selinger 2001-2011
</metadata>
<g transform="translate(0.000000,300.000000) scale(0.100000,-0.100000)"
fill="#000000" stroke="none">
<path d="M1048 2313 c414 -3 422 -4 422 -23 0 -20 -7 -20 -400 -20 l-400 0 0
-400 c0 -391 0 -400 -20 -400 -18 0 -20 8 -23 100 l-3 100 0 -102 1 -103 28
-3 27 -3 0 400 0 401 400 0 400 0 0 30 0 30 -427 -2 -428 -3 423 -2z"/>
<path d="M927 1973 c-3 -5 -6 -116 -8 -248 l-4 -240 50 0 50 0 6 95 c3 52 3
102 0 110 -3 8 -8 -32 -11 -90 l-5 -105 -44 -3 -44 -3 6 77 c4 42 7 151 7 241
l0 163 60 0 c54 0 60 -2 64 -22 3 -13 10 -41 15 -63 l10 -40 -5 40 c-12 100
-8 95 -79 95 -35 0 -66 -3 -68 -7z"/>
<path d="M1140 1973 c0 -5 26 -7 58 -5 l59 4 6 -123 c4 -67 7 -175 7 -241 l0
-118 -39 0 -38 0 -7 61 c-3 34 -6 80 -7 103 -1 40 -1 40 -10 11 -5 -16 -6 -46
-2 -65 6 -32 8 -45 12 -103 1 -15 9 -18 49 -15 l47 3 3 155 c2 85 0 197 -3
248 l-7 92 -64 0 c-35 0 -64 -3 -64 -7z"/>
<path d="M1320 1730 l0 -251 63 3 62 3 3 248 2 247 -65 0 -65 0 0 -250z m120
0 l0 -240 -55 0 -55 0 0 240 0 240 55 0 55 0 0 -240z"/>
<path d="M1342 1733 l-2 -223 45 0 45 0 -2 223 -3 222 -2 -217 -3 -218 -35 0
-35 0 -3 218 -2 217 -3 -222z"/>
<path d="M1490 1730 l0 -251 63 3 62 3 5 70 5 69 23 -72 23 -72 119 0 119 0 7
35 c3 20 4 39 0 42 -3 4 -6 -5 -6 -18 0 -47 -9 -50 -125 -47 l-108 3 -26 77
c-14 42 -29 80 -33 84 -5 4 -8 -32 -8 -79 l0 -87 -55 0 -55 0 0 240 0 240 55
0 55 0 0 -72 c0 -40 4 -68 8 -62 4 5 6 39 4 77 l-4 67 -64 0 -64 0 0 -250z"/>
<path d="M1651 1929 c-11 -29 -21 -57 -21 -63 1 -6 11 14 24 44 l24 55 57 3
c49 3 57 1 51 -12 -15 -39 -16 -49 -2 -26 27 44 21 50 -48 50 l-63 0 -22 -51z"/>
<path d="M1877 1973 c-3 -5 -8 -30 -11 -58 l-6 -50 13 50 12 50 61 3 61 3 16
-73 c15 -67 16 -69 10 -18 -10 96 -13 100 -87 100 -36 0 -67 -3 -69 -7z"/>
<path d="M942 1733 l-2 -223 30 0 30 0 0 145 c0 80 4 145 9 145 4 0 14 -35 22
-77 7 -43 15 -71 16 -63 2 8 -2 47 -9 85 -10 50 -18 70 -28 70 -12 0 -15 -25
-18 -147 -2 -139 -4 -148 -22 -148 -19 0 -20 9 -23 218 l-2 217 -3 -222z"/>
<path d="M1121 1889 c-7 -33 -10 -63 -8 -65 2 -3 10 23 16 57 7 33 10 63 8 65
-2 3 -10 -23 -16 -57z"/>
<path d="M1145 1905 c-3 -26 -4 -49 -2 -52 3 -3 9 16 12 42 4 25 5 48 2 51 -2
3 -8 -16 -12 -41z"/>
<path d="M1243 1738 c4 -206 4 -218 -14 -218 -13 0 -19 9 -22 33 -4 31 -4 31
-5 -5 -2 -36 0 -38 29 -38 l31 0 -7 218 c-4 119 -10 219 -13 222 -2 3 -2 -93
1 -212z"/>
<path d="M1512 1733 l-2 -223 45 0 45 0 0 93 c0 52 3 97 7 101 4 4 16 -10 25
-31 15 -34 17 -34 11 -8 -3 17 -10 39 -16 49 -9 19 -10 19 -23 1 -9 -13 -14
-48 -14 -107 l0 -88 -35 0 -35 0 -3 218 -2 217 -3 -222z"/>
<path d="M1594 1860 c0 -52 1 -74 3 -47 2 26 2 68 0 95 -2 26 -3 4 -3 -48z"/>
<path d="M1741 1906 c-23 -54 -37 -99 -22 -76 14 22 52 120 46 120 -2 0 -13
-20 -24 -44z"/>
<path d="M1871 1839 c-7 -38 -11 -73 -8 -75 3 -3 10 27 17 66 7 39 10 73 8 76
-3 2 -10 -28 -17 -67z"/>
<path d="M1731 1823 c-17 -43 -27 -73 -22 -68 13 14 63 136 58 141 -2 3 -18
-30 -36 -73z"/>
<path d="M1056 1832 c7 -61 22 -120 23 -87 0 11 -6 47 -14 80 l-14 60 5 -53z"/>
<path d="M1840 1795 c-7 -36 -10 -68 -7 -71 2 -3 10 25 16 62 7 36 10 68 8 71
-3 2 -10 -26 -17 -62z"/>
<path d="M2012 1840 c0 -14 6 -47 13 -75 l14 -50 -6 50 c-3 27 -9 61 -14 75
l-7 25 0 -25z"/>
<path d="M1935 1840 c-3 -5 -8 -33 -10 -62 l-4 -53 10 53 c6 30 14 51 17 47 4
-3 12 -39 19 -78 l12 -72 -5 70 c-3 39 -8 78 -10 88 -6 19 -19 22 -29 7z"/>
<path d="M1121 1779 c-7 -33 -10 -63 -8 -65 2 -3 10 23 16 57 7 33 10 63 8 65
-2 3 -10 -23 -16 -57z"/>
<path d="M2041 1805 c0 -11 6 -47 14 -80 l14 -60 -5 53 c-7 61 -22 120 -23 87z"/>
<path d="M1177 1802 c7 -5 13 -40 16 -87 l3 -80 2 88 c2 77 0 87 -15 87 -12 0
-14 -3 -6 -8z"/>
<path d="M1690 1781 c-11 -27 -9 -40 15 -106 36 -97 43 -92 10 6 -21 59 -24
79 -15 98 6 13 9 25 7 28 -2 2 -10 -10 -17 -26z"/>
<path d="M1152 1719 c-17 -91 -13 -120 4 -34 8 39 13 77 11 85 -2 8 -9 -15
-15 -51z"/>
<path d="M1841 1679 c-7 -38 -11 -73 -8 -75 3 -3 10 27 17 66 7 39 10 73 8 76
-3 2 -10 -28 -17 -67z"/>
<path d="M1936 1717 c-7 -38 -2 -57 15 -57 11 0 11 47 0 75 -7 16 -9 13 -15
-18z"/>
<path d="M1710 1736 c0 -14 53 -157 56 -153 2 2 -7 37 -21 77 -23 68 -35 94
-35 76z"/>
<path d="M1909 1682 c-7 -40 -5 -42 43 -42 30 0 38 4 37 18 0 10 -3 12 -6 5
-2 -7 -18 -13 -33 -13 -25 0 -29 4 -32 33 l-3 32 -6 -33z"/>
<path d="M1810 1635 c-7 -36 -10 -68 -7 -71 2 -3 10 25 16 62 7 36 10 68 8 71
-3 2 -10 -26 -17 -62z"/>
<path d="M2041 1685 c0 -11 6 -47 14 -80 l14 -60 -5 53 c-7 61 -22 120 -23 87z"/>
<path d="M2071 1645 c0 -11 6 -47 14 -80 l14 -60 -5 53 c-7 61 -22 120 -23 87z"/>
<path d="M1051 1628 c-1 -9 4 -40 10 -68 10 -46 13 -50 39 -50 25 0 28 4 35
46 3 25 4 48 2 51 -3 3 -9 -16 -12 -41 -6 -36 -11 -46 -26 -46 -11 0 -20 9
-23 23 -13 63 -24 100 -25 85z"/>
<path d="M1651 1626 c-1 -5 7 -33 16 -63 l17 -53 43 0 c47 0 51 7 27 55 -14
29 -13 7 1 -27 6 -15 2 -18 -28 -18 -34 0 -36 2 -55 58 -11 31 -21 53 -21 48z"/>
<path d="M1896 1594 c-3 -9 -6 -28 -5 -42 1 -29 3 -24 13 21 6 24 11 27 46 27
35 0 40 -3 40 -22 0 -55 10 -68 51 -68 31 0 39 4 38 18 0 10 -3 12 -6 5 -2 -7
-17 -13 -33 -13 -29 0 -40 18 -40 68 0 20 -5 22 -49 22 -35 0 -51 -4 -55 -16z"/>
<path d="M1820 1573 c0 -10 -3 -28 -6 -40 -6 -21 -3 -23 37 -21 43 1 43 1 7 5
-36 4 -36 5 -31 39 3 19 3 34 -1 34 -3 0 -6 -8 -6 -17z"/>
<path d="M2377 1553 c-4 -3 -7 -183 -7 -399 l0 -394 -207 -3 -208 -2 211 -3
211 -2 6 257 c4 141 7 321 7 400 0 120 2 143 15 143 13 0 15 -53 15 -420 l0
-420 -419 0 -420 0 -4 23 c-4 19 -4 18 -6 -5 l-1 -28 430 0 430 0 0 430 0 430
-23 0 c-13 0 -27 -3 -30 -7z"/>
<path d="M1984 1505 c1 -17 9 -20 55 -23 30 -2 58 0 62 5 4 4 -18 6 -51 5 -50
-3 -59 -1 -63 15 -3 15 -4 15 -3 -2z"/>
<path d="M1054 1500 c1 -11 14 -15 44 -16 l42 -1 -39 4 c-22 2 -42 9 -44 16
-2 7 -3 5 -3 -3z"/>
<path d="M913 1380 c-13 -5 -32 -24 -43 -42 -17 -28 -20 -51 -20 -156 0 -131
9 -166 52 -196 30 -21 117 -21 147 0 28 20 51 72 51 114 0 29 -1 30 -49 30
l-50 0 -3 -42 c-2 -35 -7 -43 -23 -43 -19 0 -20 8 -23 115 -3 127 1 160 22
160 17 0 26 -22 26 -61 0 -28 1 -29 50 -29 50 0 50 0 50 33 0 43 -29 99 -60
114 -29 15 -95 16 -127 3z m127 -15 c20 -10 32 -27 39 -53 19 -65 16 -72 -28
-72 -38 0 -40 1 -43 36 -4 44 -28 65 -52 45 -23 -20 -23 -262 0 -282 24 -20
48 1 52 45 3 35 5 36 43 36 44 0 47 -7 29 -72 -14 -49 -43 -68 -103 -68 -96 0
-117 35 -117 198 0 124 11 166 49 187 34 19 95 19 131 0z"/>
<path d="M1200 1383 c-26 -10 -60 -46 -60 -62 1 -11 5 -8 14 8 27 49 107 66
166 36 42 -22 52 -68 48 -214 -3 -120 -4 -123 -31 -147 -22 -18 -40 -24 -78
-24 -100 0 -118 30 -121 202 l-2 123 -4 -115 c-4 -137 7 -184 48 -205 34 -18
109 -20 144 -4 47 22 58 66 54 214 -3 131 -4 135 -30 161 -21 22 -38 28 -80
30 -29 2 -60 1 -68 -3z"/>
<path d="M2035 1383 c61 -7 75 -14 90 -44 23 -43 16 -63 -25 -70 l-35 -6 43
-2 c39 -1 42 1 42 24 0 34 -25 82 -49 95 -11 5 -37 9 -58 9 -33 -2 -34 -3 -8
-6z"/>
<path d="M1422 1178 l3 -203 65 -3 c80 -4 133 11 159 45 19 23 21 40 21 165
l0 140 -29 29 c-23 23 -38 29 -68 28 -26 -1 -30 -3 -13 -6 48 -8 82 -26 91
-50 12 -32 12 -255 -1 -287 -13 -36 -42 -47 -131 -53 l-79 -6 0 202 c0 130 -4
201 -10 201 -7 0 -9 -70 -8 -202z"/>
<path d="M1722 1177 l-2 -208 93 3 92 3 3 33 c3 32 3 32 -42 32 l-46 0 0 54
c0 54 0 55 33 58 29 3 32 6 32 38 0 32 -3 35 -32 38 -31 3 -33 6 -33 42 0 39
0 39 43 42 39 3 42 5 43 33 1 28 1 28 -3 3 -4 -26 -7 -28 -54 -28 l-49 0 0
-39 c0 -57 8 -71 41 -71 24 0 29 -4 29 -24 0 -21 -6 -25 -32 -28 l-33 -3 0
-60 0 -60 48 -3 c42 -3 47 -5 47 -28 0 -24 -2 -24 -85 -24 l-85 0 -3 203 -2
202 -3 -208z"/>
<path d="M1974 1372 c-39 -27 -56 -99 -33 -145 6 -12 35 -45 65 -73 40 -37 54
-58 54 -78 0 -38 -33 -31 -41 9 l-7 30 -1 -32 c-1 -22 5 -35 17 -41 27 -14 42
-3 42 31 0 25 -12 44 -62 95 -61 60 -63 65 -63 113 0 43 4 54 28 75 26 22 27
34 1 16z"/>
<path d="M1232 1318 c-13 -13 -18 -242 -6 -272 3 -9 14 -16 23 -16 35 0 41 21
41 150 0 124 -6 150 -35 150 -6 0 -16 -5 -23 -12z m43 -20 c3 -13 4 -75 3
-138 -3 -107 -4 -115 -23 -115 -19 0 -20 8 -23 124 -1 69 0 131 2 138 8 21 35
15 41 -9z"/>
<path d="M1510 1180 c0 -151 5 -164 50 -140 20 10 20 18 18 143 l-3 132 -32 3
-33 3 0 -141z m55 0 c0 -111 -2 -125 -17 -128 -16 -3 -18 8 -18 128 0 120 2
131 18 128 15 -3 17 -17 17 -128z"/>
<path d="M2020 1287 c0 -27 10 -43 55 -86 84 -79 98 -139 46 -192 -24 -23 -38
-29 -75 -29 -56 0 -92 29 -102 83 -6 37 -6 37 27 38 32 2 33 2 5 6 -16 3 -33
0 -38 -5 -17 -17 0 -77 29 -106 21 -21 35 -26 77 -26 74 1 116 41 116 110 0
44 -20 78 -80 133 -45 41 -51 52 -48 78 3 16 1 29 -4 29 -4 0 -8 -15 -8 -33z"/>
</g>
</svg>
